<?xml version="1.0" encoding="utf-8"?>
<svg xmlns="http://www.w3.org/2000/svg" viewBox="0 0 32 32" width="512" height="512">
  <path d="M11.5 5L11.1875 5.40625L10 7L3 7L3 25L14.0625 25C14.03125 24.671875 14 24.339844 14 24C14 23.660156 14.03125 23.328125 14.0625 23L5 23L5 9L11 9L11.3125 8.59375L12.5 7L19.5 7L20.6875 8.59375L21 9L27 9L27 14.46875C27.703125 14.691406 28.371094 14.980469 29 15.34375L29 7L22 7L20.8125 5.40625L20.5 5 Z M 8 10C7.449219 10 7 10.449219 7 11C7 11.550781 7.449219 12 8 12C8.550781 12 9 11.550781 9 11C9 10.449219 8.550781 10 8 10 Z M 16 10C12.691406 10 10 12.691406 10 16C10 18.707031 11.816406 21.003906 14.28125 21.75C14.433594 21.085938 14.628906 20.449219 14.90625 19.84375C13.226563 19.371094 12 17.828125 12 16C12 13.792969 13.792969 12 16 12C17.828125 12 19.371094 13.226563 19.84375 14.90625C20.449219 14.625 21.085938 14.4375 21.75 14.28125C21.003906 11.816406 18.707031 10 16 10 Z M 24 16C19.59375 16 16 19.59375 16 24C16 28.40625 19.59375 32 24 32C28.40625 32 32 28.40625 32 24C32 19.59375 28.40625 16 24 16 Z M 24 18C27.324219 18 30 20.675781 30 24C30 27.324219 27.324219 30 24 30C20.675781 30 18 27.324219 18 24C18 20.675781 20.675781 18 24 18 Z M 23 20L23 23L20 23L20 25L23 25L23 28L25 28L25 25L28 25L28 23L25 23L25 20Z" fill="#FFFFFF" />
</svg>