<?xml version="1.0" encoding="utf-8"?>
<svg xmlns="http://www.w3.org/2000/svg" viewBox="0 0 100 100" width="400" height="400">
  <circle cx="23" cy="72" r="11" fill="#b3b2c3" />
  <path fill="#1f212b" d="M23,84c-6.617,0-12-5.383-12-12s5.383-12,12-12s12,5.383,12,12S29.617,84,23,84z M23,62 c-5.514,0-10,4.486-10,10s4.486,10,10,10s10-4.486,10-10S28.514,62,23,62z" />
  <circle cx="23" cy="72" r="5" fill="#f9e65c" />
  <path fill="#1f212b" d="M23,78c-3.309,0-6-2.691-6-6s2.691-6,6-6s6,2.691,6,6S26.309,78,23,78z M23,68c-2.206,0-4,1.794-4,4 s1.794,4,4,4s4-1.794,4-4S25.206,68,23,68z" />
  <circle cx="78" cy="72" r="11" fill="#b3b2c3" />
  <path fill="#1f212b" d="M78,84c-6.617,0-12-5.383-12-12s5.383-12,12-12s12,5.383,12,12S84.617,84,78,84z M78,62 c-5.514,0-10,4.486-10,10s4.486,10,10,10s10-4.486,10-10S83.514,62,78,62z" />
  <circle cx="78" cy="72" r="5" fill="#f9e65c" />
  <path fill="#1f212b" d="M78,78c-3.309,0-6-2.691-6-6s2.691-6,6-6s6,2.691,6,6S81.309,78,78,78z M78,68c-2.206,0-4,1.794-4,4 s1.794,4,4,4s4-1.794,4-4S80.206,68,78,68z" />
  <path fill="#1f212b" d="M22.742,73c-0.19,0-0.383-0.055-0.554-0.168c-0.459-0.307-0.583-0.927-0.277-1.387l3.025-4.537 c0.306-0.46,0.927-0.584,1.387-0.277c0.459,0.307,0.583,0.927,0.277,1.387l-3.025,4.537C23.382,72.844,23.065,73,22.742,73z" />
  <path fill="#1f212b" d="M78.37,73c-0.331,0-0.654-0.163-0.845-0.463l-3.08-4.839c-0.296-0.466-0.159-1.084,0.307-1.381 c0.466-0.295,1.084-0.159,1.381,0.307l3.08,4.839c0.296,0.466,0.159,1.084-0.307,1.381C78.74,72.949,78.554,73,78.37,73z" />
  <path fill="#a1d3a2" d="M77.677,55.355C89.982,55.355,94,66.068,94,66.068l-4.531,1.592H67.833L77.677,55.355z" />
  <path fill="#1f212b" d="M89.469,68.66H67.833c-0.384,0-0.735-0.221-0.901-0.566c-0.167-0.347-0.12-0.758,0.121-1.059 l9.844-12.305c0.189-0.237,0.477-0.375,0.781-0.375c12.85,0,17.216,11.247,17.259,11.36c0.094,0.252,0.083,0.531-0.03,0.774 c-0.114,0.244-0.321,0.432-0.575,0.521l-4.531,1.593C89.694,68.641,89.582,68.66,89.469,68.66z M69.914,66.66h19.385l3.342-1.175 c-1.241-2.467-5.35-8.907-14.488-9.124L69.914,66.66z" />
  <path fill="#bb7a54" d="M45.5,41H29c-3.866,0-7,3.134-7,7v0h23.5c1.933,0,3.5-1.567,3.5-3.5v0C49,42.567,47.433,41,45.5,41z" />
  <path fill="#1f212b" d="M45.5,49H22c-0.552,0-1-0.447-1-1c0-4.411,3.589-8,8-8h16.5c2.481,0,4.5,2.019,4.5,4.5 S47.981,49,45.5,49z M23.083,47H45.5c1.378,0,2.5-1.121,2.5-2.5S46.878,42,45.5,42H29C26.032,42,23.561,44.166,23.083,47z" />
  <path fill="#52bfa1" d="M65.901,26C67.115,29.375,70,38.312,70,47c0,8-7,18-7,18H48.145c-4.041,0-5.975-2.373-5.975-6.414 c0-2.25,0.537-7.729,0.848-10.586H25c-8,0-16,8.465-16,16c5,2,21.542,8,31.762,8H60.96c2.461,0,4.858-1.692,6.568-3.448L82,51 c-0.19-11.904-10-23-15-25H65.901z" />
  <path fill="#1f212b" d="M60.96,73H40.763c-11.819,0-31.31-7.742-32.134-8.071C8.249,64.776,8,64.409,8,64 c0-8.262,8.738-17,17-17h18.018c0.284,0,0.555,0.121,0.744,0.332c0.19,0.212,0.281,0.493,0.25,0.776 c-0.388,3.577-0.842,8.468-0.842,10.478c0,3.644,1.627,5.414,4.976,5.414h14.322C63.764,62.035,69,53.682,69,47 c0-8.507-2.825-17.283-4.04-20.662c-0.11-0.306-0.064-0.646,0.123-0.913C65.271,25.158,65.576,25,65.901,25H67 c0.127,0,0.253,0.024,0.372,0.071C72.77,27.231,82.805,38.709,83,50.984c0.003,0.237-0.077,0.469-0.229,0.651L68.3,69.188 C66.881,70.65,64.121,73,60.96,73z M10.023,63.327C13.583,64.71,30.359,71,40.763,71H60.96c2.427,0,4.708-1.971,5.852-3.146 l14.179-17.203c-0.353-10.56-8.649-20.701-13.584-23.355C68.802,31.496,71,39.331,71,47c0,8.221-6.888,18.154-7.181,18.573 C63.632,65.841,63.326,66,63,66H48.146c-4.433,0-6.976-2.702-6.976-7.414c0-2.217,0.497-7.28,0.736-9.586H25 C18.074,49,10.49,56.367,10.023,63.327z" />
  <g>
    <path fill="#1f212b" d="M70,27H55c-0.552,0-1-0.447-1-1s0.448-1,1-1h15c0.552,0,1,0.447,1,1S70.552,27,70,27z" />
  </g>
  <g>
    <path fill="#1f212b" d="M39.115,69.25c-0.001,0-0.002,0-0.003,0c-0.276-0.002-0.499-0.227-0.497-0.503 c0.009-1.423-0.091-3.575-0.617-5.755c-0.065-0.269,0.1-0.538,0.369-0.604c0.265-0.059,0.539,0.101,0.603,0.369 c0.55,2.277,0.655,4.518,0.646,5.995C39.613,69.028,39.39,69.25,39.115,69.25z" />
  </g>
  <g>
    <path fill="#1f212b" d="M37.75,61.058c-0.198,0-0.385-0.118-0.464-0.313C35.618,56.601,32.494,54.5,28,54.5 c-0.276,0-0.5-0.224-0.5-0.5s0.224-0.5,0.5-0.5c4.872,0,8.404,2.376,10.214,6.871c0.103,0.256-0.021,0.547-0.277,0.65 C37.876,61.046,37.813,61.058,37.75,61.058z" />
  </g>
  <g>
    <path fill="#1f212b" d="M12.75,61.625c-0.115,0-0.231-0.039-0.325-0.12c-0.21-0.18-0.234-0.496-0.054-0.705 c1.083-1.265,5.146-5.5,11.902-6.906c0.272-0.064,0.535,0.117,0.592,0.388c0.056,0.271-0.118,0.535-0.388,0.591 c-6.448,1.342-10.315,5.374-11.348,6.578C13.031,61.565,12.891,61.625,12.75,61.625z" />
  </g>
  <g>
    <path fill="#1f212b" d="M88.875,65.375c-0.176,0-0.348-0.094-0.438-0.259c-0.817-1.485-2.021-2.742-3.58-3.734 c-0.233-0.148-0.302-0.457-0.153-0.69c0.148-0.231,0.459-0.3,0.69-0.153c1.702,1.084,3.02,2.462,3.919,4.096 c0.133,0.242,0.045,0.546-0.197,0.68C89.04,65.355,88.957,65.375,88.875,65.375z" />
  </g>
  <g>
    <path fill="#1f212b" d="M82.625,60.208c-0.06,0-0.121-0.011-0.18-0.033c-1.36-0.523-2.383-0.679-2.393-0.68 c-0.273-0.041-0.462-0.295-0.422-0.567c0.04-0.273,0.291-0.455,0.567-0.423c0.046,0.007,1.136,0.17,2.607,0.736 c0.258,0.1,0.386,0.389,0.287,0.646C83.015,60.086,82.826,60.208,82.625,60.208z" />
  </g>
  <g>
    <path fill="#a1d3a2" d="M73.667,26H67.25C64.351,26,62,23.538,62,20.5v0c0-3.038,2.351-5.5,5.25-5.5H76L73.667,26z" />
    <path fill="#1f212b" d="M73.667,27H67.25C63.804,27,61,24.084,61,20.5s2.804-6.5,6.25-6.5H76 c0.302,0,0.587,0.136,0.777,0.37s0.264,0.542,0.201,0.838l-2.333,11C74.547,26.67,74.139,27,73.667,27z M67.25,16 C64.907,16,63,18.019,63,20.5s1.907,4.5,4.25,4.5h5.606l1.909-9H67.25z" />
  </g>
</svg>